<svg width="56" height="56" viewBox="0 0 56 56" fill="none" xmlns="http://www.w3.org/2000/svg">
<path fill-rule="evenodd" clip-rule="evenodd" d="M34 19.8787C33.7026 19.8787 33.4174 19.9968 33.2071 20.2071L20.903 32.5112L20.3744 34.6256L22.4888 34.097L34.7929 21.7929C34.897 21.6888 34.9796 21.5651 35.036 21.4291C35.0923 21.293 35.1213 21.1472 35.1213 21C35.1213 20.8527 35.0923 20.7069 35.036 20.5709C34.9796 20.4348 34.897 20.3112 34.7929 20.2071C34.6888 20.103 34.5652 20.0204 34.4291 19.964C34.2931 19.9077 34.1473 19.8787 34 19.8787ZM31.7929 18.7929C32.3783 18.2075 33.1722 17.8787 34 17.8787C34.4099 17.8787 34.8158 17.9594 35.1945 18.1163C35.5732 18.2731 35.9173 18.503 36.2071 18.7929C36.497 19.0827 36.7269 19.4268 36.8837 19.8055C37.0406 20.1842 37.1213 20.5901 37.1213 21C37.1213 21.4099 37.0406 21.8158 36.8837 22.1945C36.7269 22.5732 36.497 22.9172 36.2071 23.2071L23.7071 35.7071C23.579 35.8352 23.4184 35.9262 23.2426 35.9701L19.2426 36.9701C18.9018 37.0553 18.5413 36.9555 18.2929 36.7071C18.0445 36.4587 17.9447 36.0982 18.0299 35.7574L19.0299 31.7574C19.0738 31.5816 19.1648 31.421 19.2929 31.2929L31.7929 18.7929ZM27 36C27 35.4477 27.4477 35 28 35H37C37.5523 35 38 35.4477 38 36C38 36.5523 37.5523 37 37 37H28C27.4477 37 27 36.5523 27 36Z" fill="#526ED3"/>
</svg>
